<svg id="Capa_1" data-name="Capa 1" xmlns="http://www.w3.org/2000/svg" viewBox="0 0 59.81 59.86"><defs><style>.cls-1{fill:#797979;}</style></defs><path class="cls-1" d="M55.65,56.43a47.55,47.55,0,0,1-3.75-3.34c-6.67-6.66-13.28-13.36-19.9-20-.36-.36-.71-.71-1.05-1.07-1.3-1.36-1.5-2.8-.12-4.18S33.65,26.68,35,28c4.08,4.05,8.2,8.06,12.23,12.16s8.08,8.38,12.61,13.09c5.23-5.43,10-10.43,14.81-15.38,3.09-3.16,6.27-6.22,9.39-9.35,1.41-1.41,2.89-2.52,4.68-.71s.83,3.26-.63,4.72Q76.77,43.85,65.53,55.23a18.08,18.08,0,0,0-1.6,1.68,50,50,0,0,1,3.68,3.6C74.45,67.34,81.28,74.17,88,81.12a5,5,0,0,1,1.3,3.64c-.46,2.27-3,2.54-4.92.65-4.11-4-8.22-8-12.24-12.15S64.21,65,59.76,60.3c-5.28,5.5-10,10.5-14.87,15.42-3.09,3.16-6.27,6.2-9.39,9.35-1.41,1.42-2.89,2.5-4.68.71s-.83-3.26.62-4.72Q42.75,69.74,54,58.36C54.44,57.9,54.69,57.53,55.65,56.43Z" transform="translate(-29.84 -26.86)"/></svg>