<svg id="Capa_1" data-name="Capa 1" xmlns="http://www.w3.org/2000/svg" viewBox="0 0 193.13 193.08"><defs><style>.cls-1{fill:#fff;}</style></defs><path class="cls-1" d="M601.75,390.22c-53.83-.18-96.21-43.16-96.19-97.24,0-51.16,41.69-96,96.78-95.83,54.7.2,96.56,44.44,96.35,97.42S655,390.4,601.75,390.22Zm.75-173.46c-40.69-1.24-77.94,32-77.68,77.35.25,42.89,33.37,76.77,76.84,76.92,44.2.15,77.55-33.81,77.68-77.09C679.49,248.47,642.64,216.08,602.5,216.76Z" transform="translate(-505.56 -197.15)"/><path class="cls-1" d="M571.66,293.85c0-10.49.61-21-.19-31.45-.64-8.41,7.45-14.32,16-9,14.93,9.38,30.05,18.46,45.1,27.66,2.27,1.38,4.61,2.66,6.83,4.13,7.22,4.77,7.33,12.72,0,17.43-8.38,5.41-17,10.49-25.48,15.69s-17.34,10.53-26,15.82c-3.57,2.18-7.13,3.43-11.25,1.19s-5.09-5.69-5-10C571.75,314.83,571.66,304.34,571.66,293.85Z" transform="translate(-505.56 -197.15)"/></svg>